# xmcd CD database file
#
# Track frame offsets:
#	150
#	2902
#	5430
#	18337
#	32952
#	47670
#	59955
#	71127
#	80320
#	91710
#	103167
#	114207
#	124305
#	140755
#	151025
#	165822
#	179505
#	199342
#	212077
#	221902
#	233100
#	248292
#	258625
#	268335
#	278527
#	290192
#	303647
#	319697
#	330812
#	343812
#
# Disc length: 4715 seconds
#
# Revision: 0
# Processed by: cddbd v1.5.2PL0 Copyright (c) Steve Scherf et al.
# Submitted via: CDex 1.70beta2
#
DISCID=ba12691e
DTITLE=Berking Willy - Denn Ich Bin Zum Tanzen Geboren
DYEAR=1999
DGENRE=Jazz
TTITLE0=Alaska Song (Erkennungsmelodie)
TTITLE1=Denn Ich Bin Zum Tanzen Geboren
TTITLE2=King Porter Stomp
TTITLE3=Ein kleiner Akkord
TTITLE4=Es wird in hundert Jahren wieder so ein Frühling sein
TTITLE5=Dixie Doodle /(w. Heinz Schönberger)
TTITLE6=Sympathy
TTITLE7=Whispering (w. Louis Freichel)
TTITLE8=La Pachanga
TTITLE9=Nie war Musik so schön
TTITLE10=Bye Bye Blues
TTITLE11=Shake, Rattle And Roll
TTITLE12=Ave Maria No Morro
TTITLE13=Wenn ich wüsst', wen ich geküsst'
TTITLE14=Zigeuner-Tango
TTITLE15=Goody Goody
TTITLE16=Sonnenblumenwalzer
TTITLE17=I Left My Heart In San Francisco
TTITLE18=Wo hast du nur die schönen blauen Augen her
TTITLE19=Es war ein Mädchen und ein Matrose
TTITLE20=Blauer Himmel
TTITLE21=Schön, dass du wieder bei mir bist
TTITLE22=Kleine Melodie, dich vergess' ich nie
TTITLE23=Wärst du doch in Düsseldorf geblieben
TTITLE24=Medley [Brasil - Cavaquinho - El Cumbachero]
TTITLE25=Es war einmal eine Liebe
TTITLE26=The Last Waltz
TTITLE27=Rock And Roll Music
TTITLE28=Träumen von der Südsee
TTITLE29=Rosalie
EXTD=YEAR: 1999
EXTT0=
EXTT1=
EXTT2=
EXTT3=
EXTT4=
EXTT5=
EXTT6=
EXTT7=
EXTT8=
EXTT9=
EXTT10=
EXTT11=
EXTT12=
EXTT13=
EXTT14=
EXTT15=
EXTT16=
EXTT17=
EXTT18=
EXTT19=
EXTT20=
EXTT21=
EXTT22=
EXTT23=
EXTT24=
EXTT25=
EXTT26=
EXTT27=
EXTT28=
EXTT29=
PLAYORDER=
